# xmcd
#
# Track frame offsets:
#   150
#   22389
#   42098
#   60763
#   80402
#   102912
#
# Disc length: 1607 seconds
#
# Revision: 0
# Processed by: cddbd v1.5.2PL0 Copyright (c) Steve Scherf et al.
# Submitted via: uFREEDB ActiveX Control 1.5
#
DISCID=41064506
DTITLE=Whitney Houston - Love
DYEAR=1990
DGENRE=Pop
TTITLE0=The Greataet Love of All
TTITLE1=If You Say My Eyes Are Beautiful
TTITLE2=Heartbreak Hotel
TTITLE3=My Love Is Your Love
TTITLE4=Same Script, Different Cast
TTITLE5=Coul I Have This Kiss Forever
EXTD=
EXTT0=
EXTT1=
EXTT2=
EXTT3=
EXTT4=
EXTT5=
PLAYORDER=
